<?xml version="1.0" encoding="utf-8"?>
<!-- Generator: Adobe Illustrator 26.1.0, SVG Export Plug-In . SVG Version: 6.00 Build 0)  -->
<svg version="1.1" id="Слой_1" xmlns="http://www.w3.org/2000/svg" xmlns:xlink="http://www.w3.org/1999/xlink" x="0px" y="0px"
	 viewBox="0 0 64 64" style="enable-background:new 0 0 64 64;" xml:space="preserve">
<style type="text/css">
	.st0{fill:#FFFFFF;}
	.st1{fill:#1D71B8;}
</style>
<g>
	<polyline class="st0" points="20.58,14.26 30.29,23.17 49.53,3.21 	"/>
	<path class="st1" d="M20.62,14.22l10.58,7.97l-1.88,0.06L49.53,3.21L31.26,24.11L30.3,25.2c0.32,0.37-9.59-10.72-9.76-10.9
		C20.54,14.3,20.62,14.22,20.62,14.22L20.62,14.22z"/>
</g>
<g>
	<polyline class="st0" points="20.54,30.67 30.33,39.49 49.58,19.53 	"/>
	<polygon points="20.57,30.63 31.23,38.49 29.37,38.55 49.58,19.53 31.3,40.42 30.36,41.5 29.43,40.49 20.5,30.71 20.57,30.63 	"/>
</g>
<g>
	<polyline class="st0" points="20.54,47.11 30.33,55.93 49.58,35.97 	"/>
	<polygon points="20.57,47.07 31.23,54.94 29.37,55 49.58,35.97 31.3,56.87 30.36,57.95 29.43,56.93 20.5,47.15 20.57,47.07 	"/>
</g>
</svg>
