<?xml version="1.0" encoding="utf-8"?>
<!-- Generator: Adobe Illustrator 26.1.0, SVG Export Plug-In . SVG Version: 6.00 Build 0)  -->
<svg version="1.1" id="Слой_1" xmlns="http://www.w3.org/2000/svg" xmlns:xlink="http://www.w3.org/1999/xlink" x="0px" y="0px"
	 viewBox="0 0 128 128" style="enable-background:new 0 0 128 128;" xml:space="preserve">
<style type="text/css">
	.st0{fill:#36A9E1;stroke:#36A9E1;stroke-miterlimit:10;}
	.st1{fill:none;}
	.st2{fill:#36A9E1;}
	.st3{fill:url(#SVGID_1_);}
	.st4{fill:#FFFFFF;}
</style>
<path class="st0" d="M110.52,122.52H17.48c-6.63,0-12-5.37-12-12V17.48c0-6.63,5.37-12,12-12h93.03c6.63,0,12,5.37,12,12v93.03
	C122.52,117.14,117.14,122.52,110.52,122.52z"/>
<rect x="71.5" y="114.79" class="st1" width="3.09" height="0"/>
<g>
	<path class="st2" d="M88.33,19.66C61.72,8.5,32.21,22.34,23.98,46.33c-7.47,21.77,3.11,47.45,23.71,56.75
		c27.25,12.3,57.96-9.97,63.88-32.39c1.87-7.09,1.15-13.76-0.19-19.05"/>
	<linearGradient id="SVGID_1_" gradientUnits="userSpaceOnUse" x1="18.7889" y1="61.105" x2="115.496" y2="61.105">
		<stop  offset="0" style="stop-color:#2581C4"/>
		<stop  offset="1" style="stop-color:#2581C4;stop-opacity:0"/>
	</linearGradient>
	<path class="st3" d="M87.25,22.24c-0.98-0.78-2.12-1.22-3.28-1.58c-1.14-0.41-2.32-0.71-3.48-1.03c-2.35-0.57-4.74-1.01-7.15-1.23
		c-2.41-0.21-4.84-0.27-7.26-0.12c-2.42,0.16-4.82,0.49-7.19,1c-9.47,2.06-18.31,7.09-24.71,14.33c-3.17,3.63-5.76,7.77-7.45,12.27
		c-1.65,4.51-2.6,9.3-2.7,14.13c-0.27,9.67,2.81,19.42,8.4,27.3c5.56,7.88,13.85,13.9,23.24,16.01c4.67,1.06,9.55,1.21,14.32,0.49
		c4.77-0.72,9.44-2.27,13.8-4.45c8.69-4.4,16.27-11.22,21.31-19.51c2.46-4.16,4.29-8.67,4.94-13.37c0.67-4.71,0.25-9.56-0.94-14.25
		l4.59-1.16c1.31,5.18,1.79,10.67,1.01,16.07c-0.75,5.43-2.86,10.54-5.59,15.12c-5.59,9.13-13.77,16.43-23.25,21.22
		c-4.75,2.38-9.87,4.1-15.17,4.91c-5.3,0.81-10.79,0.66-16.06-0.53c-2.63-0.61-5.2-1.48-7.67-2.55c-1.22-0.58-2.4-1.22-3.6-1.83
		c-0.61-0.28-1.16-0.69-1.73-1.05l-1.69-1.1c-4.42-3.07-8.26-6.93-11.36-11.29c-6.2-8.72-9.59-19.41-9.32-30.13
		c0.1-5.36,1.14-10.69,2.99-15.75c1.9-5.05,4.78-9.7,8.31-13.74c7.11-8.07,16.85-13.61,27.28-15.9c2.61-0.56,5.27-0.93,7.93-1.11
		c2.67-0.16,5.35-0.11,8.01,0.12c2.66,0.24,5.3,0.72,7.9,1.35c1.29,0.35,2.58,0.69,3.84,1.13c1.28,0.39,2.48,0.96,3.89,1.08
		L87.25,22.24z"/>
</g>
<g>
	<polyline class="st2" points="36.1,65.51 58.9,90.47 102.41,35.39 	"/>
	<path class="st4" d="M38.5,63.32l22.75,25.01c0,0-4.84,0.17-4.84,0.17L100,33.49c0,0,4.82,3.81,4.82,3.81L61.39,92.44l-2.31,2.93
		C58.65,94.81,34.93,69.1,33.7,67.7C33.7,67.7,38.5,63.32,38.5,63.32L38.5,63.32z"/>
</g>
</svg>
